<?xml version="1.0" standalone="no"?>
<!DOCTYPE svg PUBLIC "-//W3C//DTD SVG 20010904//EN"
 "http://www.w3.org/TR/2001/REC-SVG-20010904/DTD/svg10.dtd">
<svg version="1.0" xmlns="http://www.w3.org/2000/svg"
 width="667.000000pt" height="589.000000pt" viewBox="0 0 667.000000 589.000000"
 preserveAspectRatio="xMidYMid meet">

<g transform="translate(0.000000,589.000000) scale(0.100000,-0.100000)"
fill="#000000" stroke="none">
<path d="M0 2945 l0 -2945 3335 0 3335 0 0 2945 0 2945 -3335 0 -3335 0 0
-2945z m3433 2008 c-3 -7 -9 -13 -15 -13 -5 0 -6 -5 -2 -11 4 -7 1 -10 -7 -7
-8 3 -13 11 -11 17 1 7 -2 10 -8 6 -8 -5 -7 -11 1 -22 11 -12 -78 -105 -556
-581 -312 -312 -607 -603 -654 -647 l-86 -80 50 60 c48 58 135 157 294 335
297 332 868 897 896 886 9 -3 12 0 9 8 -6 17 46 55 65 48 8 -2 11 0 8 5 -3 5
0 10 7 10 8 0 12 -6 9 -14z m129 -291 c32 -11 86 -37 120 -58 74 -45 189 -156
209 -201 8 -18 18 -33 22 -33 5 0 6 -4 2 -9 -3 -5 0 -13 5 -16 11 -7 10 -20
-12 -120 -12 -56 -36 -128 -55 -164 -9 -18 -13 -21 -17 -10 -2 8 -12 41 -22
74 -64 216 -186 391 -311 447 -70 32 -165 29 -236 -6 -243 -118 -406 -606
-352 -1050 29 -244 88 -431 175 -553 153 -219 345 -257 514 -102 91 84 197
280 221 412 4 20 11 39 15 42 9 6 48 -86 60 -142 l9 -38 -232 -233 -232 -234
-81 6 c-147 11 -266 63 -380 168 -108 100 -205 256 -258 416 -77 232 -86 520
-26 758 l20 79 299 299 299 298 94 -4 c59 -3 114 -12 150 -26z m-226 -296
c-15 -29 -48 -74 -75 -99 -47 -44 -128 -93 -138 -83 -14 13 14 50 63 82 57 38
106 91 127 136 11 27 39 42 45 25 2 -4 -8 -32 -22 -61z m129 23 c33 -56 88
-109 141 -134 19 -9 41 -29 49 -45 14 -28 14 -30 -2 -30 -31 0 -117 56 -162
105 -61 66 -97 156 -63 155 4 0 21 -23 37 -51z m1104 -751 c-35 -40 -75 -86
-89 -102 -287 -341 -1022 -1087 -1053 -1070 -7 4 -9 3 -4 -1 9 -10 -41 -65
-60 -65 -7 0 -13 -4 -13 -9 0 -5 -8 -11 -18 -13 -61 -16 21 72 633 681 360
358 657 651 660 651 4 0 -22 -33 -56 -72z m-1373 -513 c73 -44 129 -104 161
-173 14 -29 23 -55 21 -57 -12 -12 -48 11 -59 37 -22 54 -84 122 -133 147 -40
19 -66 50 -66 77 0 10 20 2 76 -31z m452 0 c-6 -14 -30 -36 -53 -50 -49 -28
-97 -80 -124 -134 -18 -35 -61 -63 -61 -39 0 23 54 116 88 151 37 39 126 97
149 97 10 0 10 -6 1 -25z m-367 -768 c-13 -12 -20 -15 -15 -7 12 22 28 39 33
34 3 -3 -6 -15 -18 -27z m1645 -598 c80 -30 185 -135 233 -234 29 -58 202
-538 233 -643 19 -66 19 -66 163 356 59 173 68 205 57 222 -12 19 -10 20 55
19 46 0 61 -3 48 -9 -12 -4 -26 -14 -32 -21 -6 -8 -43 -108 -82 -224 -40 -115
-98 -284 -129 -375 l-57 -165 -55 -3 -55 -3 -52 153 c-232 685 -266 774 -319
837 -53 63 -176 99 -234 69 -32 -17 -36 -40 -15 -84 21 -44 12 -87 -22 -114
-35 -27 -75 -25 -112 6 -26 21 -31 33 -31 68 0 139 215 216 406 145z m-4028
-293 c87 -45 117 -150 63 -217 -14 -18 -29 -24 -59 -24 -79 0 -115 71 -76 146
14 28 14 33 -1 56 -15 22 -22 25 -60 21 -24 -3 -59 -15 -79 -27 -126 -78 -155
-461 -44 -587 80 -91 221 -108 323 -38 25 17 41 22 48 15 16 -16 -84 -106
-139 -125 -99 -34 -241 -12 -321 50 -86 66 -132 167 -140 309 -9 153 23 258
102 340 49 49 83 69 157 90 64 18 183 13 226 -9z m2073 -5 c70 -33 115 -76
148 -141 41 -84 54 -156 49 -275 -6 -118 -30 -191 -88 -264 -110 -139 -345
-150 -470 -22 -78 80 -110 172 -110 321 0 220 88 358 254 401 52 14 168 3 217
-20z m-1352 -338 c148 -436 138 -411 170 -428 24 -13 16 -14 -92 -15 -115 0
-117 0 -105 20 11 17 8 34 -17 108 l-31 87 -154 0 -153 0 -18 -50 c-25 -72
-24 -111 6 -140 l24 -25 -90 0 -91 0 33 32 c40 41 36 29 168 418 61 179 113
331 116 338 3 7 24 12 58 12 l54 0 122 -357z m818 324 c2 -24 -1 -27 -15 -21
-9 5 -57 9 -107 9 l-90 0 -3 -360 c-2 -357 -2 -360 19 -377 20 -17 17 -18 -97
-18 -110 0 -117 1 -96 16 l22 15 0 365 0 364 -86 0 c-47 0 -94 -5 -105 -10
-17 -10 -19 -7 -19 20 l0 30 287 -2 288 -3 2 -28z m1184 19 c172 -40 268 -177
269 -381 0 -198 -86 -338 -238 -385 -54 -17 -93 -20 -239 -20 -174 0 -175 0
-152 19 l24 19 0 362 0 362 -24 19 c-23 19 -22 19 140 19 101 0 186 -5 220
-14z m716 5 c94 -14 166 -51 200 -102 24 -36 28 -54 31 -123 4 -103 -20 -156
-90 -201 -26 -16 -47 -34 -47 -40 0 -5 32 -73 72 -150 61 -119 77 -143 107
-157 l35 -18 -124 0 c-111 0 -122 2 -110 16 11 13 2 36 -56 155 l-69 139 -63
0 -63 0 0 -139 c0 -133 1 -141 22 -155 21 -15 14 -16 -101 -16 -123 0 -123 0
-100 19 l24 19 0 362 0 362 -24 19 c-23 19 -22 19 135 19 88 0 187 -4 221 -9z
m580 -9 c-15 -17 -17 -58 -17 -385 l0 -366 22 -15 c21 -15 13 -16 -102 -15
-95 0 -120 3 -103 11 12 6 24 20 27 32 3 11 6 175 6 362 0 330 -1 342 -21 368
l-20 26 112 0 c108 0 111 -1 96 -18z m1373 -19 c0 -35 -1 -35 -19 -19 -16 14
-38 16 -157 14 l-139 -3 -3 -149 c-2 -113 1 -151 10 -158 7 -4 46 -8 86 -8 59
0 76 4 92 20 l20 20 0 -56 c0 -50 -1 -54 -16 -40 -21 21 -179 23 -187 3 -3 -8
-6 -86 -6 -175 l-2 -161 24 -7 c14 -3 86 -4 162 -2 122 3 138 5 151 22 13 18
14 17 14 -22 l0 -42 -272 0 c-249 0 -271 1 -250 16 l22 15 0 369 0 369 -22 15
c-21 15 -1 16 235 16 l257 0 0 -37z"/>
<path d="M2770 1428 c-75 -51 -115 -193 -107 -383 7 -180 47 -284 123 -320 74
-35 145 8 183 110 48 129 49 362 1 487 -45 117 -123 158 -200 106z"/>
<path d="M1375 1293 c-20 -51 -115 -333 -115 -342 0 -7 43 -11 130 -11 97 0
130 3 130 13 0 6 -27 88 -60 181 -33 94 -60 171 -60 173 0 11 -19 0 -25 -14z"/>
<path d="M3442 1083 l3 -358 35 -3 c145 -14 216 62 241 257 9 70 9 116 0 193
-22 196 -81 268 -221 268 l-60 0 2 -357z"/>
<path d="M4162 1239 l3 -204 55 -3 c42 -2 66 3 100 20 62 32 83 72 88 172 3
70 0 87 -20 125 -34 66 -63 83 -153 89 l-75 5 2 -204z"/>
</g>
</svg>
